<?xml version="1.0" encoding="UTF-8" standalone="no"?>
<!-- Created with Inkscape (http://www.inkscape.org/) -->

<svg width="47px" height="47px" viewBox="0 0 47 47" version="1.1" id="svg5"
   xmlns="http://www.w3.org/2000/svg">
   <g id="layer1">
      <rect
         style="fill:#ffffff;stroke:#000000;stroke-width:0.5px"
         id="rect41575" width="46.5px" height="46.5px" x="0.25px" y="0.25px" />
      <rect
         style="fill:#400080;stroke:#000000;stroke-width:0.5px"
         id="rect41573" width="45.5px" height="45.5px" x="0.25px" y="0.25px" />
      <rect
         style="fill:#8000ff;stroke:#000000;stroke-width:0.5px"
         id="rect41571" width="44.5px" height="44.5px" x="0.25px" y="0.25px" />
      <rect
         style="fill:#ff0080;stroke:#000000;stroke-width:0.5px"
         id="rect41569" width="43.5px" height="43.5px" x="0.25px" y="0.25px" />
      <rect
         style="fill:#ff00ff;stroke:#000000;stroke-width:0.5px"
         id="rect41567" width="42.5px" height="42.5px" x="0.25px" y="0.25px" />
      <rect
         style="fill:#ff80ff;stroke:#000000;stroke-width:0.5px"
         id="rect41565" width="41.5px" height="41.5px" x="0.25px" y="0.25px" />
      <rect
         style="fill:#ff80c0;stroke:#000000;stroke-width:0.5px"
         id="rect41563" width="40.5px" height="40.5px" x="0.25px" y="0.25px" />
      <rect
         style="fill:#8080c0;stroke:#000000;stroke-width:0.5px"
         id="rect41561" width="39.5px" height="39.5px" x="0.25px" y="0.25px" />
      <rect
         style="fill:#800040;stroke:#000000;stroke-width:0.5px"
         id="rect41559" width="38.5px" height="38.5px" x="0.25px" y="0.25px" />
      <rect
         style="fill:#800080;stroke:#000000;stroke-width:0.5px"
         id="rect41557" width="37.5px" height="37.5px" x="0.25px" y="0.25px" />
      <rect
         style="fill:#400040;stroke:#000000;stroke-width:0.5px"
         id="rect41555" width="36.5px" height="36.5px" x="0.25px" y="0.25px" />
      <rect
         style="fill:#c0c0c0;stroke:#000000;stroke-width:0.5px"
         id="rect41553" width="35.5px" height="35.5px" x="0.25px" y="0.25px" />
      <rect
         style="fill:#000040;stroke:#000000;stroke-width:0.5px"
         id="rect41551" width="34.5px" height="34.5px" x="0.25px" y="0.25px" />
      <rect
         style="fill:#0000a0;stroke:#000000;stroke-width:0.5px"
         id="rect41549" width="33.5px" height="33.5px" x="0.25px" y="0.25px" />
      <rect
         style="fill:#8080ff;stroke:#000000;stroke-width:0.5px"
         id="rect41547" width="32.5px" height="32.5px" x="0.25px" y="0.25px" />
      <rect
         style="fill:#0080c0;stroke:#000000;stroke-width:0.5px"
         id="rect41545" width="31.5px" height="31.5px" x="0.25px" y="0.25px" />
      <rect
         style="fill:#0080ff;stroke:#000000;stroke-width:0.5px"
         id="rect41543" width="30.5px" height="30.5px" x="0.25px" y="0.25px" />
      <rect
         style="fill:#80ffff;stroke:#000000;stroke-width:0.5px"
         id="rect41541" width="29.5px" height="29.5px" x="0.25px" y="0.25px" />
      <rect
         style="fill:#00ffff;stroke:#000000;stroke-width:0.5px"
         id="rect41539" width="28.5px" height="28.5px" x="0.25px" y="0.25px" />
      <rect
         style="fill:#004080;stroke:#000000;stroke-width:0.5px"
         id="rect41537" width="27.5px" height="27.5px" x="0.25px" y="0.25px" />
      <rect
         style="fill:#0000ff;stroke:#000000;stroke-width:0.5px"
         id="rect41535" width="26.5px" height="26.5px" x="0.25px" y="0.25px" />
      <rect
         style="fill:#000080;stroke:#000000;stroke-width:0.5px"
         id="rect41533" width="25.5px" height="25.5px" x="0.25px" y="0.25px" />
      <rect
         style="fill:#408080;stroke:#000000;stroke-width:0.5px"
         id="rect41531" width="24.5px" height="24.5px" x="0.25px" y="0.25px" />
      <rect
         style="fill:#808080;stroke:#000000;stroke-width:0.5px"
         id="rect41529" width="23.5px" height="23.5px" x="0.25px" y="0.25px" />
      <rect
         style="fill:#004040;stroke:#000000;stroke-width:0.5px"
         id="rect41527" width="22.5px" height="22.5px" x="0.25px" y="0.25px" />
      <rect
         style="fill:#008040;stroke:#000000;stroke-width:0.5px"
         id="rect41525" width="21.5px" height="21.5px" x="0.25px" y="0.25px" />
      <rect
         style="fill:#008080;stroke:#000000;stroke-width:0.5px"
         id="rect41523" width="20.5px" height="20.5px" x="0.25px" y="0.25px" />
      <rect
         style="fill:#00ff40;stroke:#000000;stroke-width:0.5px"
         id="rect41521" width="19.5px" height="19.5px" x="0.25px" y="0.25px" />
      <rect
         style="fill:#00ff80;stroke:#000000;stroke-width:0.5px"
         id="rect41519" width="18.5px" height="18.5px" x="0.25px" y="0.25px" />
      <rect
         style="fill:#80ff80;stroke:#000000;stroke-width:0.5px"
         id="rect41517" width="17.5px" height="17.5px" x="0.25px" y="0.25px" />
      <rect
         style="fill:#80ff00;stroke:#000000;stroke-width:0.5px"
         id="rect41515" width="16.5px" height="16.5px" x="0.25px" y="0.25px" />
      <rect
         style="fill:#00ff00;stroke:#000000;stroke-width:0.5px"
         id="rect41513" width="15.5px" height="15.5px" x="0.25px" y="0.25px" />
      <rect
         style="fill:#008000;stroke:#000000;stroke-width:0.5px"
         id="rect41511" width="14.5px" height="14.5px" x="0.25px" y="0.25px" />
      <rect
         style="fill:#004000;stroke:#000000;stroke-width:0.5px"
         id="rect41509" width="13.5px" height="13.5px" x="0.25px" y="0.25px" />
      <rect
         style="fill:#808040;stroke:#000000;stroke-width:0.5px"
         id="rect41507" width="12.5px" height="12.5px" x="0.25px" y="0.25px" />
      <rect
         style="fill:#808000;stroke:#000000;stroke-width:0.5px"
         id="rect41505" width="11.5px" height="11.5px" x="0.25px" y="0.25px" />
      <rect
         style="fill:#804000;stroke:#000000;stroke-width:0.5px"
         id="rect41503" width="10.5px" height="10.5px" x="0.25px" y="0.25px" />
      <rect
         style="fill:#ff8000;stroke:#000000;stroke-width:0.5px"
         id="rect41501" width="9.5px" height="9.5px" x="0.25px" y="0.25px" />
      <rect
         style="fill:#ff8040;stroke:#000000;stroke-width:0.5px"
         id="rect41499" width="8.5px" height="8.5px" x="0.25px" y="0.25px" />
      <rect
         style="fill:#ffff00;stroke:#000000;stroke-width:0.5px"
         id="rect41444-6-0" width="7.5px" height="7.5px" x="0.25px" y="0.25px" />
      <rect
         style="fill:#ffff80;stroke:#000000;stroke-width:0.5px"
         id="rect41444-6" width="6.5px" height="6.5px" x="0.25px" y="0.25px" />
      <rect
         style="fill:#ff8080;stroke:#000000;stroke-width:0.5px"
         id="rect41444" width="5.5px" height="5.5px" x="0.25px" y="0.25px" />
      <rect
         style="fill:#ff0000;stroke:#000000;stroke-width:0.5px"
         id="rect32004" width="4.5px" height="4.5px" x="0.25px" y="0.25px" />
      <rect
         style="fill:#804040;stroke:#000000;stroke-width:0.5px"
         id="rect31276" width="3.5px" height="3.5px" x="0.25px" y="0.25px" />
      <rect
         style="fill:#800000;stroke:#000000;stroke-width:0.5px"
         id="rect16746" width="2.5px" height="2.5px" x="0.25px" y="0.25px" />
      <rect
         style="fill:#400000;stroke:#000000;stroke-width:0.5px"
         id="rect7978" width="1.5px" height="1.5px" x="0.25px" y="0.25px" />
      <rect
         style="fill:#000000;stroke:none;stroke-width:0.5px"
         id="rect792" width="1px" height="1px" x="-1px" y="-1px" transform="scale(-1)" />
   </g>
</svg>